# xmcd
#
# Track frame offsets: 
#        150
#        11857
#        26246
#        37642
#        48894
#        61775
#        73046
#        84500
#        98400
#        114242
#        127601
#        139890
#        153868
#        165918
#        175221
#        189385
#        200860
#        213005
#        224218
#        237688
#        251349
#        261380
#        272831
#        286980
#        301428
#        315579
#        327474
#        340906
#
# Disc length: 4714 seconds
#
# Revision: 1
# Processed by: cddbd v1.5.2PL0 Copyright (c) Steve Scherf et al.
# Submitted via: ExactAudioCopy v1.0b1
#
DISCID=9112681c
DTITLE=Various Artist - Ike Turner: That Kat Sure Could Play!
DYEAR=2010
DGENRE=Blues
TTITLE0=Ike Turner singing with Ben Burton And His Orchestra - Trouble
TTITLE0=And Heartaches
TTITLE1=Boyd Gilmore - All In My Dreams
TTITLE2=Boyd Gilmore - Take A Little Walk With Me
TTITLE3=Charley Booker - Charley's Boogie Woogie
TTITLE4=Bonnie And Ike Turner - My Hearts Belong To You
TTITLE5=Bonnie And Ike Turner - Looking For My Baby
TTITLE6=B.B King And His Orchestra - You Didn't Want Me
TTITLE7=B.B King And His Orchestra - You Know I Love You
TTITLE8=Johnny Ace and Earl Forrest - Midnight Hour Journey
TTITLE9=Johnny Ace and Earl Forrest - Trouble And Me
TTITLE10=Mary Sue - Everybody's Talking
TTITLE11=Mary Sue - Love Is A Gamble
TTITLE12=Baby Face Turner - Blue Serenade
TTITLE13=Baby Face Turner - Gonna Let You Go
TTITLE14=Elmore James - Please Find My Baby
TTITLE15=The Prisonaires - Softly and Tenderly
TTITLE16=The Prisonaires - A Prisoner's Prayer
TTITLE17=Little Milton - Beggin' My Baby
TTITLE18=Little Milton - Somebody Told Me
TTITLE19=Billy 'The Kid' Emerson - No Teasing Around
TTITLE20=Billy 'The Kid' Emerson - If Lovin' Is Beliving
TTITLE21=Little Milton - If You Love Me Baby
TTITLE22=Little Milton - Alone And Blue
TTITLE23=Billy 'The Kid' Emerson - I'm Not Going Home
TTITLE24=Billy 'The Kid' Emerson - The Woodchuck
TTITLE25=Raymond Hill - Bourbon St. Jump
TTITLE26=Raymond Hill - The Snuggle
TTITLE27=Elmore James - Hand In Hand
EXTD=
EXTT0=
EXTT1=
EXTT2=
EXTT3=
EXTT4=
EXTT5=
EXTT6=
EXTT7=
EXTT8=
EXTT9=
EXTT10=
EXTT11=
EXTT12=
EXTT13=
EXTT14=
EXTT15=
EXTT16=
EXTT17=
EXTT18=
EXTT19=
EXTT20=
EXTT21=
EXTT22=
EXTT23=
EXTT24=
EXTT25=
EXTT26=
EXTT27=
PLAYORDER=
